<?xml version="1.0" encoding="UTF-8"?>
<svg width="128pt" height="128pt" version="1.1" viewBox="0 0 128 128" xmlns="http://www.w3.org/2000/svg">
 <path d="m 112.7 19.3842 c -7.1148 -5.3922 -16.0832 -7.7437 -24.9326 -6.5352 c -8.8484 1.2086 -16.8546 5.8789 -22.2628 12.9882 l -1.1047 1.4493 l -1.1047 -1.4493 c -7.2789 -9.5868 -19.1128 -14.5572 -31.0576 -13.0484 c -11.9382 1.5148 -22.1648 9.2805 -26.824 20.377 c -4.6593 11.0961 -3.0461 23.8322 4.2328 33.4138 l 27.9286 36.7724 c 6.3711 8.3891 16.2918 13.3109 26.824 13.3109 s 20.4526 -4.9218 26.824 -13.3109 l 27.9286 -36.7724 c 5.3922 -7.1148 7.7437 -16.0832 6.5352 -24.9326 c -1.2086 -8.8484 -5.8789 -16.8546 -12.9882 -22.2628 z m -23.7076 82.2724 c -5.8407 7.6891 -14.9352 12.2063 -24.5924 12.2063 s -18.753 -4.5172 -24.5924 -12.2063 l -27.9286 -36.7668 c -6.6718 -8.7882 -8.1484 -20.4638 -3.8718 -30.6362 c 4.2711 -10.1718 13.6445 -17.2928 24.5868 -18.676 c 10.9484 -1.3891 21.798 3.1664 28.476 11.9493 l 1.575 2.0727 l -8.6953 11.4516 l -3.9102 -5.1461 c -5.693 -7.4922 -16.3786 -8.9578 -23.8714 -3.2648 c -7.4922 5.693 -8.9523 16.3786 -3.2648 23.8714 l 10.8555 14.2954 l 17.073 22.477 c 3.2266 4.2437 8.2414 6.732 13.568 6.732 s 10.3468 -2.4882 13.568 -6.732 c 4.6047 -6.0977 4.6047 -14.5138 0 -20.6122 l -11.8125 -15.547 l 1.2195 -1.6078 l 7.4757 -9.8382 l 14.1428 18.6214 c 4.0632 5.3813 6.2563 11.9382 6.2563 18.6816 c 0 6.7375 -2.193 13.2945 -6.2563 18.676 z m -35.9296 -27.2888 l 11.3368 -14.9296 l 11.3368 14.9296 c 3.85 5.0968 3.85 12.1297 0 17.227 c -2.6907 3.5437 -6.8852 5.6218 -11.3368 5.6218 s -8.6461 -2.0836 -11.3368 -5.6273 v -0.0055 l -0.0055 0.0055 c -3.8445 -5.0968 -3.8445 -12.1243 0.0055 -17.2214 z m -27.9286 -19.5454 c -2.2859 -3.0078 -3.2868 -6.8032 -2.7782 -10.5437 c 0.5086 -3.7461 2.4882 -7.1313 5.4961 -9.4172 c 3.0078 -2.2859 6.8032 -3.2813 10.5437 -2.7672 c 3.7461 0.5141 7.1313 2.4937 9.4118 5.5016 l 4.3805 5.7641 l -14.6132 19.2444 c -1.1156 1.482 -2.1109 3.0516 -2.9641 4.6977 z m 69.0536 12.4797 c -0.8531 -1.6461 -1.8484 -3.2157 -2.9641 -4.6977 l -14.6132 -19.2388 l 4.3805 -5.7641 v -0.0055 c 2.2805 -3.0078 5.6657 -4.982 9.4063 -5.4961 c 3.7461 -0.5141 7.5359 0.4812 10.5437 2.7672 c 3.0078 2.2859 4.9875 5.6711 5.4961 9.4118 c 0.5086 3.7407 -0.4867 7.5359 -2.7727 10.5437 z m 22.7332 -2.4118 l -19.8184 26.0918 c 0.0492 -0.1969 0.0766 -0.3937 0.1203 -0.5906 c 0.1258 -0.5523 0.2406 -1.1047 0.3336 -1.668 c 0.0492 -0.3008 0.093 -0.6016 0.1367 -0.9023 c 0.0766 -0.5141 0.1367 -1.0281 0.1859 -1.5422 c 0.0328 -0.3117 0.0547 -0.6289 0.0766 -0.9406 c 0.0383 -0.525 0.0547 -1.0445 0.0711 -1.5695 c 0.0055 -0.2953 0.0164 -0.5961 0.0164 -0.8914 c 0 -0.6016 -0.0273 -1.2031 -0.0602 -1.8047 c -0.0109 -0.2188 -0.0164 -0.432 -0.0328 -0.6508 c -0.0602 -0.8148 -0.1531 -1.6297 -0.2734 -2.4391 c -0.0273 -0.1859 -0.0711 -0.3719 -0.0984 -0.5523 c -0.1039 -0.6289 -0.2188 -1.2523 -0.3609 -1.8757 c -0.0656 -0.2898 -0.1422 -0.5742 -0.2133 -0.8586 c -0.1312 -0.5195 -0.2734 -1.0445 -0.432 -1.5586 c -0.093 -0.3062 -0.1914 -0.6125 -0.2953 -0.9133 c -0.1695 -0.5031 -0.35 -1.0008 -0.5469 -1.4984 c -0.0711 -0.1859 -0.1258 -0.3719 -0.2023 -0.5523 l 10.3687 -13.65 v -0.0109 c 5.6875 -7.4922 4.2273 -18.1776 -3.2648 -23.8714 c -7.4922 -5.693 -18.1776 -4.2273 -23.8714 3.2648 l -10.9375 14.4046 l -16.9862 22.3678 l -0.0055 -0.0055 c -2.4882 3.2922 -3.7023 7.3718 -3.418 11.4843 l -10.9157 -14.378 c 0.9078 -1.9359 2.0125 -3.7734 3.3086 -5.4797 l 15.2572 -20.0872 l 7.2132 -9.4937 l 5.4578 -7.1859 l -0.0055 -0.0055 c 6.6773 -8.7828 17.528 -13.3437 28.476 -11.9602 c 10.9484 1.3891 20.3224 8.5093 24.598 18.6816 c 4.2711 10.1718 2.7945 21.8526 -3.8828 30.6418 z" fill="#ea4aaa"/>
</svg>